<svg width="920" height="720" viewBox="0 0 920 720" fill="none" xmlns="http://www.w3.org/2000/svg">
  <defs>
    <linearGradient id="p1" x1="0" y1="0" x2="1" y2="1">
      <stop offset="0" stop-color="#66E3C4" stop-opacity="0.30"/>
      <stop offset="1" stop-color="#47C7FF" stop-opacity="0.25"/>
    </linearGradient>
    <linearGradient id="p2" x1="1" y1="0" x2="0" y2="1">
      <stop offset="0" stop-color="#0B1220"/>
      <stop offset="1" stop-color="#0F1B2E"/>
    </linearGradient>
  </defs>
  <rect x="0" y="0" width="920" height="720" rx="26" fill="url(#p2)"/>
  <rect x="24" y="24" width="872" height="672" rx="22" stroke="#FFFFFF" stroke-opacity="0.10"/>

  <rect x="70" y="70" width="280" height="220" rx="18" fill="url(#p1)" stroke="#FFFFFF" stroke-opacity="0.12"/>
  <rect x="100" y="102" width="180" height="20" rx="10" fill="#FFFFFF" fill-opacity="0.10"/>
  <rect x="100" y="136" width="220" height="16" rx="8" fill="#FFFFFF" fill-opacity="0.08"/>
  <rect x="100" y="162" width="200" height="16" rx="8" fill="#FFFFFF" fill-opacity="0.08"/>

  <rect x="390" y="70" width="460" height="260" rx="20" fill="#0F1A2D" stroke="#FFFFFF" stroke-opacity="0.10"/>
  <rect x="420" y="102" width="400" height="150" rx="16" fill="#0B1220"/>
  <rect x="420" y="268" width="280" height="16" rx="8" fill="#FFFFFF" fill-opacity="0.08"/>

  <rect x="70" y="340" width="780" height="120" rx="18" fill="#0F1B2E" stroke="#FFFFFF" stroke-opacity="0.10"/>
  <rect x="100" y="372" width="160" height="22" rx="11" fill="#66E3C4" fill-opacity="0.65"/>
  <rect x="100" y="406" width="520" height="16" rx="8" fill="#FFFFFF" fill-opacity="0.08"/>

  <rect x="70" y="490" width="360" height="170" rx="18" fill="url(#p1)" stroke="#FFFFFF" stroke-opacity="0.10"/>
  <rect x="100" y="520" width="200" height="18" rx="9" fill="#FFFFFF" fill-opacity="0.10"/>
  <rect x="100" y="548" width="220" height="16" rx="8" fill="#FFFFFF" fill-opacity="0.08"/>

  <rect x="470" y="490" width="380" height="170" rx="18" fill="#0F1A2D" stroke="#FFFFFF" stroke-opacity="0.10"/>
  <rect x="500" y="520" width="260" height="18" rx="9" fill="#FFFFFF" fill-opacity="0.08"/>
  <rect x="500" y="548" width="220" height="16" rx="8" fill="#FFFFFF" fill-opacity="0.06"/>
</svg>
