<svg width="1200" height="820" viewBox="0 0 1200 820" fill="none" xmlns="http://www.w3.org/2000/svg">
  <defs>
    <linearGradient id="g1" x1="0" y1="0" x2="1" y2="1">
      <stop offset="0" stop-color="#6AE3C4" stop-opacity="0.18"/>
      <stop offset="1" stop-color="#4EC7FF" stop-opacity="0.08"/>
    </linearGradient>
    <linearGradient id="g2" x1="0" y1="1" x2="1" y2="0">
      <stop offset="0" stop-color="#1F2937" stop-opacity="0.85"/>
      <stop offset="1" stop-color="#0B1220" stop-opacity="0.95"/>
    </linearGradient>
    <radialGradient id="r1" cx="0" cy="0" r="1" gradientUnits="userSpaceOnUse" gradientTransform="translate(240 200) rotate(35) scale(420 280)">
      <stop offset="0" stop-color="#47C7FF" stop-opacity="0.35"/>
      <stop offset="1" stop-color="#47C7FF" stop-opacity="0"/>
    </radialGradient>
    <radialGradient id="r2" cx="0" cy="0" r="1" gradientUnits="userSpaceOnUse" gradientTransform="translate(980 520) rotate(-10) scale(420 300)">
      <stop offset="0" stop-color="#66E3C4" stop-opacity="0.30"/>
      <stop offset="1" stop-color="#66E3C4" stop-opacity="0"/>
    </radialGradient>
  </defs>

  <rect x="0" y="0" width="1200" height="820" rx="28" fill="url(#g2)"/>
  <rect x="24" y="24" width="1152" height="772" rx="24" stroke="#FFFFFF" stroke-opacity="0.08"/>
  <rect x="40" y="48" width="520" height="260" rx="18" fill="url(#g1)" stroke="#FFFFFF" stroke-opacity="0.10"/>
  <rect x="60" y="78" width="220" height="22" rx="11" fill="#FFFFFF" fill-opacity="0.10"/>
  <rect x="60" y="116" width="380" height="16" rx="8" fill="#FFFFFF" fill-opacity="0.08"/>
  <rect x="60" y="144" width="360" height="16" rx="8" fill="#FFFFFF" fill-opacity="0.08"/>
  <rect x="60" y="172" width="320" height="16" rx="8" fill="#FFFFFF" fill-opacity="0.08"/>
  <rect x="60" y="206" width="120" height="34" rx="12" fill="#66E3C4" fill-opacity="0.85"/>

  <rect x="40" y="332" width="520" height="420" rx="18" fill="#0F1B2E" stroke="#FFFFFF" stroke-opacity="0.10"/>
  <rect x="64" y="356" width="472" height="72" rx="14" fill="#FFFFFF" fill-opacity="0.04"/>
  <rect x="64" y="444" width="472" height="72" rx="14" fill="#FFFFFF" fill-opacity="0.04"/>
  <rect x="64" y="532" width="472" height="72" rx="14" fill="#FFFFFF" fill-opacity="0.04"/>

  <rect x="600" y="48" width="560" height="360" rx="22" fill="#0F1A2D" stroke="#FFFFFF" stroke-opacity="0.10"/>
  <rect x="624" y="76" width="512" height="200" rx="16" fill="#0B1220"/>
  <path d="M830 146 L900 186 L830 226 Z" fill="#FFFFFF" fill-opacity="0.82"/>
  <rect x="624" y="292" width="360" height="18" rx="9" fill="#FFFFFF" fill-opacity="0.08"/>
  <rect x="624" y="322" width="300" height="16" rx="8" fill="#FFFFFF" fill-opacity="0.06"/>

  <rect x="600" y="432" width="560" height="320" rx="22" fill="url(#g1)" stroke="#FFFFFF" stroke-opacity="0.10"/>
  <rect x="628" y="460" width="180" height="120" rx="14" fill="#0B1220" fill-opacity="0.65"/>
  <rect x="828" y="460" width="300" height="36" rx="12" fill="#FFFFFF" fill-opacity="0.10"/>
  <rect x="828" y="508" width="260" height="16" rx="8" fill="#FFFFFF" fill-opacity="0.08"/>
  <rect x="828" y="534" width="220" height="16" rx="8" fill="#FFFFFF" fill-opacity="0.08"/>
  <rect x="628" y="610" width="500" height="22" rx="11" fill="#66E3C4" fill-opacity="0.55"/>

  <circle cx="250" cy="610" r="140" fill="url(#r1)"/>
  <circle cx="980" cy="260" r="140" fill="url(#r2)"/>
</svg>
