<svg width="980" height="760" viewBox="0 0 980 760" fill="none" xmlns="http://www.w3.org/2000/svg">
  <defs>
    <linearGradient id="a" x1="0" y1="0" x2="1" y2="1">
      <stop offset="0" stop-color="#66E3C4" stop-opacity="0.20"/>
      <stop offset="1" stop-color="#47C7FF" stop-opacity="0.18"/>
    </linearGradient>
    <linearGradient id="b" x1="1" y1="0" x2="0" y2="1">
      <stop offset="0" stop-color="#0F1B2E"/>
      <stop offset="1" stop-color="#0B1220"/>
    </linearGradient>
  </defs>
  <rect x="0" y="0" width="980" height="760" rx="26" fill="url(#b)"/>
  <rect x="22" y="22" width="936" height="716" rx="22" stroke="#FFFFFF" stroke-opacity="0.10"/>

  <rect x="70" y="70" width="320" height="200" rx="18" fill="url(#a)" stroke="#FFFFFF" stroke-opacity="0.12"/>
  <rect x="100" y="104" width="200" height="20" rx="10" fill="#FFFFFF" fill-opacity="0.10"/>
  <rect x="100" y="136" width="240" height="16" rx="8" fill="#FFFFFF" fill-opacity="0.08"/>
  <rect x="100" y="162" width="210" height="16" rx="8" fill="#FFFFFF" fill-opacity="0.08"/>

  <rect x="420" y="70" width="470" height="260" rx="18" fill="#0F1A2D" stroke="#FFFFFF" stroke-opacity="0.10"/>
  <rect x="450" y="104" width="410" height="160" rx="16" fill="#0B1220"/>
  <path d="M640 160 L700 190 L640 220 Z" fill="#FFFFFF" fill-opacity="0.82"/>
  <rect x="450" y="276" width="280" height="16" rx="8" fill="#FFFFFF" fill-opacity="0.08"/>

  <rect x="70" y="300" width="820" height="160" rx="20" fill="#0F1B2E" stroke="#FFFFFF" stroke-opacity="0.10"/>
  <rect x="100" y="334" width="180" height="26" rx="13" fill="#66E3C4" fill-opacity="0.65"/>
  <rect x="100" y="372" width="560" height="16" rx="8" fill="#FFFFFF" fill-opacity="0.08"/>
  <rect x="100" y="398" width="480" height="16" rx="8" fill="#FFFFFF" fill-opacity="0.06"/>

  <rect x="70" y="488" width="380" height="200" rx="20" fill="url(#a)" stroke="#FFFFFF" stroke-opacity="0.10"/>
  <rect x="90" y="520" width="200" height="20" rx="10" fill="#FFFFFF" fill-opacity="0.10"/>
  <rect x="90" y="552" width="240" height="16" rx="8" fill="#FFFFFF" fill-opacity="0.08"/>
  <rect x="90" y="578" width="200" height="16" rx="8" fill="#FFFFFF" fill-opacity="0.08"/>

  <rect x="510" y="488" width="380" height="200" rx="20" fill="#0F1A2D" stroke="#FFFFFF" stroke-opacity="0.10"/>
  <rect x="540" y="520" width="280" height="18" rx="9" fill="#FFFFFF" fill-opacity="0.08"/>
  <rect x="540" y="552" width="240" height="16" rx="8" fill="#FFFFFF" fill-opacity="0.06"/>
  <rect x="540" y="578" width="220" height="16" rx="8" fill="#FFFFFF" fill-opacity="0.06"/>
</svg>
