<svg width="1200" height="780" viewBox="0 0 1200 780" fill="none" xmlns="http://www.w3.org/2000/svg">
  <defs>
    <linearGradient id="bg" x1="0" y1="0" x2="1" y2="1">
      <stop offset="0" stop-color="#f6f8ff"/>
      <stop offset="1" stop-color="#eef2ff"/>
    </linearGradient>
    <linearGradient id="accent" x1="0" y1="0" x2="1" y2="0">
      <stop offset="0" stop-color="#c81d25"/>
      <stop offset="1" stop-color="#2a6fd6"/>
    </linearGradient>
  </defs>
  <rect width="1200" height="780" rx="28" fill="url(#bg)"/>
  <rect x="36" y="36" width="1128" height="708" rx="24" stroke="#0d0f12" stroke-opacity="0.08"/>

  <rect x="70" y="78" width="420" height="180" rx="18" fill="#ffffff" stroke="#0d0f12" stroke-opacity="0.12"/>
  <rect x="94" y="108" width="200" height="18" rx="9" fill="#0d0f12" fill-opacity="0.12"/>
  <rect x="94" y="138" width="280" height="14" rx="7" fill="#0d0f12" fill-opacity="0.08"/>
  <rect x="94" y="164" width="240" height="14" rx="7" fill="#0d0f12" fill-opacity="0.08"/>
  <rect x="94" y="190" width="120" height="28" rx="10" fill="url(#accent)"/>

  <rect x="520" y="78" width="610" height="280" rx="20" fill="#ffffff" stroke="#0d0f12" stroke-opacity="0.12"/>
  <rect x="550" y="112" width="180" height="16" rx="8" fill="#0d0f12" fill-opacity="0.12"/>
  <rect x="550" y="146" width="520" height="12" rx="6" fill="#0d0f12" fill-opacity="0.08"/>
  <rect x="550" y="170" width="480" height="12" rx="6" fill="#0d0f12" fill-opacity="0.08"/>
  <rect x="550" y="218" width="520" height="86" rx="12" fill="#f2f4ff"/>
  <rect x="570" y="236" width="220" height="12" rx="6" fill="#0d0f12" fill-opacity="0.12"/>
  <rect x="570" y="258" width="320" height="10" rx="5" fill="#0d0f12" fill-opacity="0.08"/>

  <rect x="70" y="300" width="1060" height="200" rx="20" fill="#ffffff" stroke="#0d0f12" stroke-opacity="0.12"/>
  <rect x="100" y="334" width="200" height="16" rx="8" fill="#0d0f12" fill-opacity="0.12"/>
  <rect x="100" y="364" width="520" height="12" rx="6" fill="#0d0f12" fill-opacity="0.08"/>
  <rect x="100" y="388" width="460" height="12" rx="6" fill="#0d0f12" fill-opacity="0.08"/>
  <rect x="100" y="420" width="900" height="12" rx="6" fill="#0d0f12" fill-opacity="0.06"/>
  <rect x="100" y="454" width="180" height="10" rx="5" fill="#c81d25" fill-opacity="0.65"/>

  <rect x="70" y="528" width="520" height="180" rx="18" fill="#ffffff" stroke="#0d0f12" stroke-opacity="0.12"/>
  <rect x="100" y="560" width="180" height="16" rx="8" fill="#0d0f12" fill-opacity="0.12"/>
  <rect x="100" y="590" width="360" height="12" rx="6" fill="#0d0f12" fill-opacity="0.08"/>
  <rect x="100" y="616" width="300" height="12" rx="6" fill="#0d0f12" fill-opacity="0.08"/>

  <rect x="630" y="528" width="500" height="180" rx="18" fill="#ffffff" stroke="#0d0f12" stroke-opacity="0.12"/>
  <rect x="660" y="560" width="220" height="16" rx="8" fill="#0d0f12" fill-opacity="0.12"/>
  <rect x="660" y="590" width="360" height="12" rx="6" fill="#0d0f12" fill-opacity="0.08"/>
  <rect x="660" y="616" width="300" height="12" rx="6" fill="#0d0f12" fill-opacity="0.08"/>
</svg>
