<svg width="1200" height="780" viewBox="0 0 1200 780" fill="none" xmlns="http://www.w3.org/2000/svg">
  <defs>
    <linearGradient id="bg3" x1="0" y1="0" x2="1" y2="1">
      <stop offset="0" stop-color="#ffffff"/>
      <stop offset="1" stop-color="#f4f6fb"/>
    </linearGradient>
    <linearGradient id="accent3" x1="0" y1="0" x2="1" y2="0">
      <stop offset="0" stop-color="#c81d25"/>
      <stop offset="1" stop-color="#2a6fd6"/>
    </linearGradient>
  </defs>
  <rect width="1200" height="780" rx="28" fill="url(#bg3)"/>
  <rect x="36" y="36" width="1128" height="708" rx="24" stroke="#0d0f12" stroke-opacity="0.08"/>

  <rect x="70" y="78" width="520" height="220" rx="20" fill="#ffffff" stroke="#0d0f12" stroke-opacity="0.12"/>
  <rect x="100" y="112" width="180" height="16" rx="8" fill="#0d0f12" fill-opacity="0.12"/>
  <rect x="100" y="142" width="360" height="12" rx="6" fill="#0d0f12" fill-opacity="0.08"/>
  <rect x="100" y="166" width="300" height="12" rx="6" fill="#0d0f12" fill-opacity="0.08"/>
  <rect x="100" y="198" width="140" height="28" rx="10" fill="url(#accent3)"/>

  <rect x="640" y="78" width="490" height="220" rx="20" fill="#ffffff" stroke="#0d0f12" stroke-opacity="0.12"/>
  <rect x="670" y="112" width="160" height="16" rx="8" fill="#0d0f12" fill-opacity="0.12"/>
  <rect x="670" y="142" width="300" height="12" rx="6" fill="#0d0f12" fill-opacity="0.08"/>
  <rect x="670" y="166" width="260" height="12" rx="6" fill="#0d0f12" fill-opacity="0.08"/>

  <rect x="70" y="330" width="1060" height="200" rx="22" fill="#ffffff" stroke="#0d0f12" stroke-opacity="0.12"/>
  <rect x="100" y="366" width="220" height="16" rx="8" fill="#0d0f12" fill-opacity="0.12"/>
  <rect x="100" y="396" width="620" height="12" rx="6" fill="#0d0f12" fill-opacity="0.08"/>
  <rect x="100" y="420" width="520" height="12" rx="6" fill="#0d0f12" fill-opacity="0.08"/>
  <rect x="100" y="452" width="260" height="12" rx="6" fill="#0d0f12" fill-opacity="0.06"/>

  <rect x="70" y="560" width="520" height="160" rx="18" fill="#ffffff" stroke="#0d0f12" stroke-opacity="0.12"/>
  <rect x="100" y="592" width="180" height="16" rx="8" fill="#0d0f12" fill-opacity="0.12"/>
  <rect x="100" y="622" width="320" height="12" rx="6" fill="#0d0f12" fill-opacity="0.08"/>

  <rect x="630" y="560" width="500" height="160" rx="18" fill="#ffffff" stroke="#0d0f12" stroke-opacity="0.12"/>
  <rect x="660" y="592" width="220" height="16" rx="8" fill="#0d0f12" fill-opacity="0.12"/>
  <rect x="660" y="622" width="300" height="12" rx="6" fill="#0d0f12" fill-opacity="0.08"/>
</svg>
